<?xml version="1.0" encoding="UTF-8"?>
<svg version="1.1" xmlns="http://www.w3.org/2000/svg" width="32" height="32">
<path d="M0 0 C10.56 0 21.12 0 32 0 C32 6.6 32 13.2 32 20 C21.44 20 10.88 20 0 20 C0 13.4 0 6.8 0 0 Z " fill="#FBE3E4" transform="translate(0,6)"/>
<path d="M0 0 C4.29 0 8.58 0 13 0 C13 6.6 13 13.2 13 20 C9.7 20 6.4 20 3 20 C2.875 13.375 2.875 13.375 4 10 C2.68 9.67 1.36 9.34 0 9 C0 9.99 0 10.98 0 12 C-1.98 12.33 -3.96 12.66 -6 13 C-5.566875 12.56429688 -5.13375 12.12859375 -4.6875 11.6796875 C-4.130625 11.08414062 -3.57375 10.48859375 -3 9.875 C-2.443125 9.29492188 -1.88625 8.71484375 -1.3125 8.1171875 C0.52689436 5.56523783 0.52689436 5.56523783 0 0 Z " fill="#E82D36" transform="translate(19,6)"/>
<path d="M0 0 C2.64 0 5.28 0 8 0 C8 6.6 8 13.2 8 20 C5.36 20 2.72 20 0 20 C0 13.4 0 6.8 0 0 Z " fill="#E82831" transform="translate(0,6)"/>
<path d="M0 0 C1.65 0 3.3 0 5 0 C4.67 3.3 4.34 6.6 4 10 C3.01 10.33 2.02 10.66 1 11 C-0.82421875 10.07421875 -0.82421875 10.07421875 -2.6875 8.6875 C-3.31011719 8.23761719 -3.93273437 7.78773437 -4.57421875 7.32421875 C-5.04472656 6.88722656 -5.51523438 6.45023438 -6 6 C-6 5.34 -6 4.68 -6 4 C-4.02 3.67 -2.04 3.34 0 3 C0 2.01 0 1.02 0 0 Z " fill="#FDF2F2" transform="translate(19,15)"/>
<path d="M0 0 C2.64 1.98 5.28 3.96 8 6 C6.68 6.33 5.36 6.66 4 7 C3.67 6.34 3.34 5.68 3 5 C0.47266765 4.34444881 0.47266765 4.34444881 -2 4 C-1.34 2.68 -0.68 1.36 0 0 Z " fill="#EB4A52" transform="translate(12,19)"/>
</svg>
