<svg xmlns="http://www.w3.org/2000/svg" viewBox="0 0 32 32" role="img" aria-label="Smart Voice">
  <defs>
    <linearGradient id="voice-bg" x1="5" y1="2" x2="28" y2="30" gradientUnits="userSpaceOnUse">
      <stop stop-color="#1aa67a"/>
      <stop offset="1" stop-color="#0b5340"/>
    </linearGradient>
  </defs>
  <rect width="32" height="32" rx="8" fill="url(#voice-bg)"/>
  <g transform="translate(0 1.4)">
    <path fill="#fff" d="M9.1 7.8c.9-1 2.5-.9 3.3.3l1.1 1.6c.6.9.4 2.1-.5 2.6l-.8.5a.7.7 0 0 0-.3.8c.8 2 2.4 3.6 4.4 4.4a.7.7 0 0 0 .8-.3l.5-.8c.5-.9 1.7-1.1 2.6-.5l1.6 1.1c1.2.8 1.3 2.4.3 3.3l-.5.5c-1.2 1.2-3 1.6-4.6 1-4.2-1.6-7.6-5-9.2-9.2-.6-1.6-.2-3.4 1-4.6z"/>
    <path fill="none" stroke="#fff" stroke-width="1.9" stroke-linecap="round" d="M21 8.6c1.7 1.5 1.7 4 0 5.5"/>
    <path fill="none" stroke="#fff" stroke-width="1.9" stroke-linecap="round" d="M23.5 6.6c3.1 2.7 3.1 7.3 0 10"/>
  </g>
</svg>
