<?xml version="1.0" encoding="UTF-8"?>
<svg version="1.1" xmlns="http://www.w3.org/2000/svg" width="526" height="116">
<path d="M0 0 C61.38 0 122.76 0 186 0 C186 38.28 186 76.56 186 116 C124.62 116 63.24 116 0 116 C0 77.72 0 39.44 0 0 Z " fill="#FEFDFD" transform="translate(0,0)"/>
<path d="M0 0 C25.41 0 50.82 0 77 0 C77 38.28 77 76.56 77 116 C57.86 116 38.72 116 19 116 C21.25 109.25 21.25 109.25 22.9453125 106.1328125 C23.47705078 105.14667969 23.47705078 105.14667969 24.01953125 104.140625 C24.56673828 103.14289063 24.56673828 103.14289063 25.125 102.125 C25.68380859 101.09246094 25.68380859 101.09246094 26.25390625 100.0390625 C27.16499526 98.35705202 28.08190315 96.67819564 29 95 C28.39671875 94.81824219 27.7934375 94.63648437 27.171875 94.44921875 C19.23374341 91.95254833 19.23374341 91.95254833 16 89 C17.70926202 83.69964422 19.70193844 78.52231065 21.7890625 73.36132812 C24.0763084 67.45260955 24.81174104 62.53542427 26 56 C17.42 56 8.84 56 0 56 C-0.66 58.97 -1.32 61.94 -2 65 C-2.88555756 67.7338543 -3.93144343 70.32860857 -5 73 C-10.03779302 69.06515575 -14.97209729 64.72615472 -18 59 C-16.8158974 55.44769221 -15.70412814 54.75853234 -12.75 52.5625 C-11.98171875 51.98628906 -11.2134375 51.41007812 -10.421875 50.81640625 C-8.76518841 49.57389131 -7.10208972 48.33989245 -5.43359375 47.11328125 C-2.79250671 44.81981722 -1.15903622 42.58775699 0.6875 39.625 C1.26886719 38.70976563 1.85023437 37.79453125 2.44921875 36.8515625 C5.41753883 31.39344245 6.41458473 26.42529471 6.4375 20.25 C6.44064209 19.54987793 6.44378418 18.84975586 6.44702148 18.12841797 C6.30329577 11.85504341 4.43595256 7.24968489 1 2 C0.67 1.34 0.34 0.68 0 0 Z " fill="#E82B34" transform="translate(109,0)"/>
<path d="M0 0 C16.17 0 32.34 0 49 0 C49 38.28 49 76.56 49 116 C32.83 116 16.66 116 0 116 C0 77.72 0 39.44 0 0 Z " fill="#E82C35" transform="translate(0,0)"/>
<path d="M0 0 C3.96 0 7.92 0 12 0 C12 4.95 12 9.9 12 15 C18.6 15.33 25.2 15.66 32 16 C32 14.35 32 12.7 32 11 C26.39 11 20.78 11 15 11 C15 9.68 15 8.36 15 7 C20.61 7 26.22 7 32 7 C32 4.69 32 2.38 32 0 C35.96 0 39.92 0 44 0 C44 2.31 44 4.62 44 7 C49.61 7 55.22 7 61 7 C61 8.32 61 9.64 61 11 C55.39 11 49.78 11 44 11 C44 12.65 44 14.3 44 16 C45.24716797 15.94779297 45.24716797 15.94779297 46.51953125 15.89453125 C48.14955078 15.85392578 48.14955078 15.85392578 49.8125 15.8125 C50.89144531 15.77769531 51.97039063 15.74289063 53.08203125 15.70703125 C56 16 56 16 57.875 17.28125 C59.69066581 20.05518388 59.18182749 22.78771435 59 26 C59.66 26 60.32 26 61 26 C61 26.99 61 27.98 61 29 C60.34 29 59.68 29 59 29 C59.04125 30.27875 59.0825 31.5575 59.125 32.875 C59.1953125 35.0546875 59.1953125 35.0546875 59 37 C57 39 57 39 53.9609375 39.1953125 C52.77757812 39.17210937 51.59421875 39.14890625 50.375 39.125 C48.59222656 39.09792969 48.59222656 39.09792969 46.7734375 39.0703125 C45.40058594 39.03550781 45.40058594 39.03550781 44 39 C44 41.64 44 44.28 44 47 C48.95 47 53.9 47 59 47 C59 47.99 59 48.98 59 50 C54.05 50 49.1 50 44 50 C44 53.3 44 56.6 44 60 C49.61 60 55.22 60 61 60 C61 61.65 61 63.3 61 65 C57.31265225 65.08776185 53.62557653 65.14064603 49.9375 65.1875 C48.37999023 65.22520508 48.37999023 65.22520508 46.79101562 65.26367188 C40.72152554 65.32147654 36.32428264 65.00937714 31 62 C29.0625 59.8125 29.0625 59.8125 28 58 C27.62875 58.763125 27.2575 59.52625 26.875 60.3125 C24.55218596 63.64186679 22.79790039 64.61230563 19 66 C15.125 66.1875 15.125 66.1875 12 66 C12.28875 65.360625 12.5775 64.72125 12.875 64.0625 C15.63839235 56.53993194 16.39580494 48.95523495 17 41 C20.96 41 24.92 41 29 41 C29.22786458 43.5390625 29.45572917 46.078125 29.68359375 48.6171875 C29.86989285 51.01110861 29.86989285 51.01110861 31 53 C31.33 48.38 31.66 43.76 32 39 C26.72 39 21.44 39 16 39 C16 38.01 16 37.02 16 36 C21.28 36 26.56 36 32 36 C32 33.69 32 31.38 32 29 C27.05 29 22.1 29 17 29 C16.67 30.32 16.34 31.64 16 33 C15.49275391 33.45705322 14.98550781 33.91410645 14.46289062 34.38500977 C12.30334777 36.76908453 12.61518958 38.67044075 12.59375 41.83984375 C12.57183594 42.98517578 12.54992187 44.13050781 12.52734375 45.31054688 C12.51832031 46.50744141 12.50929688 47.70433594 12.5 48.9375 C12.48212432 51.30092025 12.4514124 53.66428743 12.40625 56.02734375 C12.39916016 57.07656006 12.39207031 58.12577637 12.38476562 59.20678711 C11.94628237 62.38996409 11.3119194 63.78287979 9 66 C0.45348837 66.81395349 0.45348837 66.81395349 -3 64 C-4.75 60.875 -4.75 60.875 -6 58 C-4.35 58 -2.7 58 -1 58 C-0.67 51.73 -0.34 45.46 0 39 C-1.98 39 -3.96 39 -6 39 C-6 38.01 -6 37.02 -6 36 C-3.03 35.505 -3.03 35.505 0 35 C0 29.39 0 23.78 0 18 C-1.98 18 -3.96 18 -6 18 C-6 17.01 -6 16.02 -6 15 C-4.02 15 -2.04 15 0 15 C0 10.05 0 5.1 0 0 Z M12 18 C12 22.62 12 27.24 12 32 C13.32 31.34 14.64 30.68 16 30 C15.67 28.68 15.34 27.36 15 26 C20.61 26 26.22 26 32 26 C32 23.69 32 21.38 32 19 C25.4 18.67 18.8 18.34 12 18 Z M44 19 C44 21.31 44 23.62 44 26 C45.65 26 47.3 26 49 26 C48.67 24.02 48.34 22.04 48 20 C46.68 19.67 45.36 19.34 44 19 Z M44 29 C44 31.31 44 33.62 44 36 C45.65 35.34 47.3 34.68 49 34 C49 32.35 49 30.7 49 29 C47.35 29 45.7 29 44 29 Z " fill="#000000" transform="translate(465,2)"/>
<path d="M0 0 C4.29 0 8.58 0 13 0 C12.34 4.95 11.68 9.9 11 15 C13.51173828 14.94779297 13.51173828 14.94779297 16.07421875 14.89453125 C18.27863579 14.86638976 20.4830637 14.83908998 22.6875 14.8125 C23.79029297 14.78736328 24.89308594 14.76222656 26.02929688 14.73632812 C27.09599609 14.72666016 28.16269531 14.71699219 29.26171875 14.70703125 C30.24100342 14.6913208 31.22028809 14.67561035 32.22924805 14.65942383 C35.4966933 15.06105271 37.35539654 16.07199121 40 18 C42.47437208 22.94874416 41.31287565 30.60623594 41.35009766 36.11157227 C41.36665091 37.90695158 41.3939329 39.70226516 41.43212891 41.49731445 C41.48696923 44.08840041 41.50878148 46.67794268 41.5234375 49.26953125 C41.54610687 50.06865433 41.56877625 50.8677774 41.59213257 51.69111633 C41.57607664 55.938589 41.37320789 57.52527304 38.65478516 60.9831543 C33.32562614 65.03172729 27.43058204 64.45873153 21 64 C15.87094899 62.82632526 12.33597354 60.02279162 9 56 C8.3671875 53.83984375 8.3671875 53.83984375 8 52 C8.71285156 52.30035156 9.42570312 52.60070313 10.16015625 52.91015625 C15.93377694 55.20250902 19.93528351 56.71394162 26 55 C27.67195977 53.32804023 27.12785168 51.29109371 27.13894653 49.05909729 C27.1369223 48.37057175 27.13489807 47.6820462 27.1328125 46.97265625 C27.13376923 46.26854111 27.13472595 45.56442596 27.13571167 44.838974 C27.13639341 43.34683137 27.13453952 41.85468579 27.13037109 40.36254883 C27.12503063 38.07561582 27.1303121 35.78887992 27.13671875 33.50195312 C27.13605781 32.05468707 27.13477632 30.60742113 27.1328125 29.16015625 C27.13483673 28.47365494 27.13686096 27.78715363 27.13894653 27.07984924 C27.16653259 23.41663176 27.16653259 23.41663176 26 20 C23.28553021 19.68758545 20.66090639 19.48663408 17.9375 19.375 C17.17888672 19.33632813 16.42027344 19.29765625 15.63867188 19.2578125 C13.75952805 19.16326438 11.87979664 19.08053244 10 19 C9.92652344 20.14662109 9.92652344 20.14662109 9.8515625 21.31640625 C7.7074607 52.03620962 7.7074607 52.03620962 -0.4375 59.4375 C-5.11511295 63.24687853 -9.32668174 64.25655645 -15.3125 64.125 C-16.38113281 64.10695313 -17.44976562 64.08890625 -18.55078125 64.0703125 C-19.35902344 64.04710938 -20.16726563 64.02390625 -21 64 C-20.29875 63.34 -19.5975 62.68 -18.875 62 C-6.67068949 49.6228239 -5.03812453 35.62924331 -3 19 C-8.61 19 -14.22 19 -20 19 C-20 17.68 -20 16.36 -20 15 C-14.06 15 -8.12 15 -2 15 C-1.855625 13.2675 -1.71125 11.535 -1.5625 9.75 C-1.27688169 6.32258026 -0.83944178 3.35776713 0 0 Z " fill="#000000" transform="translate(329,2)"/>
<path d="M0 0 C4.6081187 -0.07436755 9.21588514 -0.12870394 13.82446289 -0.16479492 C15.39093107 -0.17984622 16.95735736 -0.20029207 18.52368164 -0.22631836 C20.78021606 -0.26286433 23.03619153 -0.27976261 25.29296875 -0.29296875 C25.98899704 -0.30845261 26.68502533 -0.32393646 27.40214539 -0.33988953 C31.75045765 -0.34138171 34.64436639 0.15198802 38 3 C39.03223851 6.05900482 38.69260904 8.87407701 38 12 C36.53979162 14.6831329 34.63410231 16.70688683 32.5 18.875 C31.39026966 20.08453093 30.28351323 21.29679684 29.1796875 22.51171875 C28.63538086 23.10130371 28.09107422 23.69088867 27.53027344 24.29833984 C20.14292059 32.51305735 12.41767664 42.83783331 11 54 C19.19169092 55.4246419 27.71774496 56.66064322 35 52 C37.95605594 47.80221523 39.534603 42.88465666 41 38 C41.33 38 41.66 38 42 38 C42.3738613 44.75719691 42.00847323 49.87560807 39 56 C33.78904654 61.21095346 26.55685793 60.21567466 19.6875 60.25 C18.66720703 60.270625 17.64691406 60.29125 16.59570312 60.3125 C10.620734 60.34339835 6.21936374 60.01469323 1 57 C-1.26295148 53.60557278 -1.34554012 51.82711829 -0.7890625 47.84765625 C3.20393109 33.4372982 14.16690462 21.29832359 23.46875 10.05859375 C25.17933484 7.98277859 25.17933484 7.98277859 26 5 C13.13 4.505 13.13 4.505 0 4 C0 2.68 0 1.36 0 0 Z " fill="#000000" transform="translate(408,7)"/>
<path d="M0 0 C2.31243792 -0.02685412 4.6249627 -0.04632841 6.9375 -0.0625 C8.22527344 -0.07410156 9.51304687 -0.08570313 10.83984375 -0.09765625 C14 0 14 0 15 1 C18.43887116 0.88980413 21.87130922 0.77577482 25.30273438 0.52148438 C30.76095702 0.3447965 34.00467164 1.58440281 38.1940918 5.09936523 C41.33147752 8.40131844 43.33554855 12.14466457 45.375 16.1875 C46.21550998 17.78549086 47.05663087 19.38316058 47.8984375 20.98046875 C48.25599121 21.68067139 48.61354492 22.38087402 48.98193359 23.10229492 C50.08498659 25.23089378 50.08498659 25.23089378 52 28 C51 29 51 29 48.8203125 29.1328125 C47.93085938 29.13023438 47.04140625 29.12765625 46.125 29.125 C45.24070312 29.12757812 44.35640625 29.13015625 43.4453125 29.1328125 C41 29 41 29 38 28 C35.14655181 27.90276297 32.3182297 27.86005186 29.46484375 27.8671875 C28.63038223 27.86623077 27.79592072 27.86527405 26.93617249 27.86428833 C25.17351201 27.8636082 23.41084902 27.86545085 21.64819336 27.86962891 C18.94444178 27.87498625 16.24085582 27.86967483 13.53710938 27.86328125 C11.82552047 27.86394193 10.11393166 27.86522288 8.40234375 27.8671875 C7.59087387 27.86516327 6.77940399 27.86313904 5.94334412 27.86105347 C1.83982358 27.77581022 1.83982358 27.77581022 -2 29 C-4.2072923 29.07092842 -6.41667452 29.08415025 -8.625 29.0625 C-9.81351563 29.05347656 -11.00203125 29.04445313 -12.2265625 29.03515625 C-13.14179688 29.02355469 -14.05703125 29.01195313 -15 29 C-14.50371094 28.16339844 -14.00742188 27.32679687 -13.49609375 26.46484375 C-8.45610956 17.86443509 -4.07582659 9.09418809 0 0 Z M11 7 C9.76678376 9.51841817 8.75559823 11.8789218 7.8125 14.5 C7.29850318 15.8647062 6.78419415 17.22929486 6.26953125 18.59375 C5.85058594 19.7178125 5.43164062 20.841875 5 22 C4.67 22.66 4.34 23.32 4 24 C13.57 24 23.14 24 33 24 C31.5529655 19.65889649 30.39834857 16.61123013 28.125 12.8125 C27.63257813 11.97332031 27.14015625 11.13414063 26.6328125 10.26953125 C24.94105913 7.91807501 23.46393485 6.50734838 21 5 C17.06014377 4.58959831 14.23804038 4.66735343 11 7 Z " fill="#000000" transform="translate(246,3)"/>
<path d="M0 0 C4.29 0 8.58 0 13 0 C13.33 0.33 13.66 0.66 14 1 C14.55131592 0.85908936 15.10263184 0.71817871 15.6706543 0.57299805 C20.87219457 -0.70653398 26.48473695 -0.18479692 31.8125 -0.1875 C33.7006543 -0.20586914 33.7006543 -0.20586914 35.62695312 -0.22460938 C47.77435981 -0.24381982 47.77435981 -0.24381982 53 2 C55.78095904 6.17143856 55.33070347 9.59962668 55.3125 14.5 C55.32861328 15.36753906 55.34472656 16.23507813 55.36132812 17.12890625 C55.36197266 17.96292969 55.36261719 18.79695313 55.36328125 19.65625 C55.36626221 20.41744141 55.36924316 21.17863281 55.37231445 21.96289062 C54.89395506 24.58022226 54.11606925 25.41840647 52 27 C48.3778608 28.42486124 44.55718225 28.11312748 40.71484375 28.09765625 C39.66859581 28.09553383 39.66859581 28.09553383 38.60121155 28.09336853 C36.37993001 28.08779019 34.15875079 28.07525336 31.9375 28.0625 C30.4394546 28.05748115 28.9414076 28.05291892 27.44335938 28.04882812 C23.62887775 28.03748241 19.81445213 28.01883036 16 28 C15.01 28 14.02 28 13 28 C8.71 28 4.42 28 0 28 C0 18.76 0 9.52 0 0 Z M13 6 C12.91925797 8.62561109 12.8596377 11.24875676 12.8125 13.875 C12.78736328 14.62136719 12.76222656 15.36773437 12.73632812 16.13671875 C12.6701236 18.56221828 12.6701236 18.56221828 13 22 C16.3081665 24.20544434 17.36771832 24.25627135 21.21875 24.265625 C22.74048828 24.26949219 22.74048828 24.26949219 24.29296875 24.2734375 C25.35128906 24.26570313 26.40960938 24.25796875 27.5 24.25 C28.55832031 24.25773437 29.61664063 24.26546875 30.70703125 24.2734375 C31.72152344 24.27085938 32.73601562 24.26828125 33.78125 24.265625 C35.1744043 24.26224121 35.1744043 24.26224121 36.59570312 24.25878906 C39.26213233 24.15925145 39.26213233 24.15925145 42 22 C42.22107787 19.2114711 42.28107535 16.65346819 42.1875 13.875 C42.17396484 13.12089844 42.16042969 12.36679687 42.14648438 11.58984375 C42.11109985 9.72625873 42.05729167 7.86304022 42 6 C37.22881567 3.5361917 32.73427243 3.70190561 27.5 3.75 C26.65824219 3.74226563 25.81648438 3.73453125 24.94921875 3.7265625 C20.52519923 3.74049642 17.02061122 3.92378273 13 6 Z " fill="#000000" transform="translate(237,39)"/>
<path d="M0 0 C4.29 0 8.58 0 13 0 C12.57992676 1.62772339 12.57992676 1.62772339 12.15136719 3.28833008 C8.877926 16.79011028 8.34160461 29.84135639 8.25 43.6875 C8.22175749 45.86525716 8.19181898 48.04299301 8.16015625 50.22070312 C8.08729079 55.48042912 8.0371218 60.73990534 8 66 C4.04 66 0.08 66 -4 66 C-4 54.12 -4 42.24 -4 30 C-5.98 30 -7.96 30 -10 30 C-9.69707031 29.42636719 -9.39414062 28.85273438 -9.08203125 28.26171875 C-4.62432066 19.22285328 -2.37231434 9.74163121 0 0 Z " fill="#000000" transform="translate(393,2)"/>
<path d="M0 0 C7.65144439 0 8.23758077 0.31255274 13.19921875 5.04296875 C15.50737738 7.55140145 17.27945062 10.06072815 19 13 C19.969375 12.13375 20.93875 11.2675 21.9375 10.375 C24.70855578 8.01820306 27.5311337 5.79065915 30.5 3.6875 C31.53640625 2.95080078 31.53640625 2.95080078 32.59375 2.19921875 C35 1 35 1 42 0 C42 9.57 42 19.14 42 29 C39.69 29 37.38 29 35 29 C34.67 22.73 34.34 16.46 34 10 C27.83568721 15.02781732 27.83568721 15.02781732 24.0625 20.875 C21.61414946 24.8361525 21.61414946 24.8361525 18.84765625 25.57421875 C16.625 25.5625 16.625 25.5625 13 25 C13.28875 24.154375 13.5775 23.30875 13.875 22.4375 C14.01881011 18.48272205 13.55129369 17.98682131 11.0625 15.125 C10.051875 14.09375 9.04125 13.0625 8 12 C7.67 17.61 7.34 23.22 7 29 C4.69 29 2.38 29 0 29 C0 19.43 0 9.86 0 0 Z " fill="#000000" transform="translate(484,85)"/>
<path d="M0 0 C3.10666155 2.23903535 4.76233198 4.54836104 5.3984375 8.43359375 C5.54164675 12.14051007 5.22767735 15.26817995 4.125 18.8125 C-1.49235597 24.59507232 -7.67773114 26.34042063 -15.625 26.5625 C-23.34954352 26.27438699 -28.50083821 24.76608863 -34 19.3125 C-36.59230897 15.01898827 -36.93124347 11.89342089 -36 7 C-33.43427208 1.5606568 -30.23802637 -0.474523 -25 -3 C-16.45879825 -5.63617338 -7.68066485 -4.42052653 0 0 Z M-27 6 C-29.18038095 9.27057143 -29.63246755 10.20519469 -29 14 C-26.09313654 17.5712894 -23.48045429 19.85383727 -19 21 C-12.54992125 21.62420117 -9.30657968 20.71460578 -4 17 C-1.67250655 13.50875983 -1.49700684 12.10777749 -2 8 C-4.85937632 4.32365902 -7.95419825 2.26576881 -12.5859375 1.6640625 C-18.57882342 1.58012852 -22.33404282 1.81260253 -27 6 Z " fill="#000000" transform="translate(311,88)"/>
<path d="M0 0 C0.6909375 -0.01611328 1.381875 -0.03222656 2.09375 -0.04882812 C7.8726238 -0.0542594 12.82997188 1.04860273 17.1875 5.125 C18.67743192 8.1925069 18.86892084 9.94281988 18.25 13.3125 C16.40899583 15.35628144 14.51953464 16.70491296 12.25 18.3125 C13.91751148 22.25389078 16.47710649 25.1017812 19.25 28.3125 C15.17925308 29.28947926 13.00740362 29.6834732 9.1875 27.8125 C2.30102224 21.95166786 2.30102224 21.95166786 0.25 18.3125 C0.3359375 16.203125 0.3359375 16.203125 1.25 14.3125 C3.09765625 13.265625 3.09765625 13.265625 5.3125 12.5625 C6.04597656 12.32015625 6.77945312 12.0778125 7.53515625 11.828125 C8.10105469 11.65796875 8.66695313 11.4878125 9.25 11.3125 C8.92 9.9925 8.59 8.6725 8.25 7.3125 C2.31 6.3225 2.31 6.3225 -3.75 5.3125 C-3.75 13.2325 -3.75 21.1525 -3.75 29.3125 C-6.06 29.3125 -8.37 29.3125 -10.75 29.3125 C-10.83674429 24.85428834 -10.89030513 20.39629196 -10.9375 15.9375 C-10.96263672 14.66648437 -10.98777344 13.39546875 -11.01367188 12.0859375 C-11.02333984 10.87421875 -11.03300781 9.6625 -11.04296875 8.4140625 C-11.0586792 7.29338379 -11.07438965 6.17270508 -11.09057617 5.01806641 C-10.97818604 4.12522949 -10.8657959 3.23239258 -10.75 2.3125 C-7.07491251 -0.13755833 -4.2514806 -0.01939544 0 0 Z " fill="#000000" transform="translate(458.75,84.6875)"/>
<path d="M0 0 C2.5 1.5 2.5 1.5 4 3 C4 3.99 4 4.98 4 6 C1.375 7.25 1.375 7.25 -2 8 C-2.886875 7.38125 -3.77375 6.7625 -4.6875 6.125 C-9.41460662 3.09251651 -13.52508753 3.21206749 -19 4 C-22.68675314 5.31580851 -22.68675314 5.31580851 -25 8 C-26.41349769 11.39418221 -26.41349769 11.39418221 -26 15 C-23.11275174 18.68926166 -20.78773141 20.65853089 -16.0546875 21.23828125 C-10.52765905 21.42647756 -6.93873059 20.27951089 -2.01953125 17.82421875 C0.61510436 16.74896127 2.36965329 16.98180127 5 18 C3.26998534 21.91133748 1.47039476 23.83534456 -2.18359375 26.015625 C-6.02594326 27.35858211 -9.57802728 27.48092891 -13.625 27.5 C-14.35340088 27.50612305 -15.08180176 27.51224609 -15.83227539 27.51855469 C-22.03499045 27.37448616 -26.15892899 25.67742025 -30.8125 21.4375 C-34.33762808 17.50950014 -34.41718313 14.68959105 -34.328125 9.5390625 C-33.93375058 6.48735567 -32.94068917 4.43152412 -30.734375 2.25 C-21.31180281 -4.54104302 -10.28373737 -4.87124402 0 0 Z " fill="#000000" transform="translate(437,87)"/>
<path d="M0 0 C1.98 0 3.96 0 6 0 C7 1 7 1 7.09765625 3.28515625 C7.06510417 5.85677083 7.03255208 8.42838542 7 11 C12.28 11 17.56 11 23 11 C23 7.37 23 3.74 23 0 C24.65 0 26.3 0 28 0 C30 2 30 2 30.22705078 4.70556641 C30.21657715 5.82624512 30.20610352 6.94692383 30.1953125 8.1015625 C30.18886719 9.31328125 30.18242187 10.525 30.17578125 11.7734375 C30.15902344 13.04445313 30.14226562 14.31546875 30.125 15.625 C30.11597656 16.90375 30.10695313 18.1825 30.09765625 19.5 C30.07402303 22.66685167 30.04107629 25.83333424 30 29 C27.69 29 25.38 29 23 29 C23 25.04 23 21.08 23 17 C17.72 17 12.44 17 7 17 C7 20.96 7 24.92 7 29 C4.69 29 2.38 29 0 29 C0 19.43 0 9.86 0 0 Z " fill="#000000" transform="translate(238,85)"/>
<path d="M0 0 C3.38597563 1.48741072 5.09205483 4.34933902 7.1875 7.2734375 C8.03886082 8.4382539 8.89297928 9.60106033 9.75 10.76171875 C10.15734375 11.31424316 10.5646875 11.86676758 10.984375 12.43603516 C12.29381236 14.15910658 12.29381236 14.15910658 14.5 16.25390625 C16.1875 17.9609375 16.1875 17.9609375 16.1875 19.9609375 C9.10015849 22.34584139 2.55728651 24.09499438 -4.8125 21.9609375 C-7.9375 19.8984375 -7.9375 19.8984375 -9.8125 16.9609375 C-10.5144661 12.04717481 -10.37907507 10.03338318 -8.0625 5.6484375 C-3.27449291 -0.07057097 -3.27449291 -0.07057097 0 0 Z " fill="#E82E36" transform="translate(66.8125,72.0390625)"/>
<path d="M0 0 C2.5970079 2.46689728 4.81701861 5.16470761 7 8 C10.24759446 6.60005228 12.11620667 4.9554506 14.4375 2.3125 C16.2578125 0.42578125 16.2578125 0.42578125 18 -1 C21.01632404 -1 22.35717988 -0.32141006 25 1 C23.46731146 4.86237511 21.06053569 6.77280912 17.9375 9.4375 C13.6632086 13.55188985 12.28263101 16.19170412 11.875 22.125 C11.87047628 24.08377132 11.8957617 26.04399899 12 28 C9.36 28 6.72 28 4 28 C4.04833984 26.76636719 4.04833984 26.76636719 4.09765625 25.5078125 C4.02603608 18.6163604 3.38119381 14.61213991 -1.4375 9.5 C-2.24058594 8.7471875 -3.04367187 7.994375 -3.87109375 7.21875 C-6.1013069 4.89441776 -7.02068556 3.03962077 -8 0 C-4.86183337 -1.56908332 -3.33903504 -1.07101124 0 0 Z " fill="#000000" transform="translate(377,86)"/>
<path d="M0 0 C1.20029908 2.40059817 1.11459743 3.89360649 1.09765625 6.5703125 C1.09443359 7.46621094 1.09121094 8.36210938 1.08789062 9.28515625 C1.07951172 10.22230469 1.07113281 11.15945312 1.0625 12.125 C1.05798828 13.06988281 1.05347656 14.01476562 1.04882812 14.98828125 C1.03702375 17.3255477 1.01908799 19.66278169 1 22 C5.62 22 10.24 22 15 22 C15 23.98 15 25.96 15 28 C7.74 28 0.48 28 -7 28 C-7 18.76 -7 9.52 -7 0 C-4.30234372 -1.34882814 -2.84835666 -0.80338265 0 0 Z " fill="#000000" transform="translate(358,86)"/>
<path d="M0 0 C3.25696479 0.41755959 4.63443291 0.63443291 7 3 C7.22705078 5.06298828 7.22705078 5.06298828 7.1953125 7.5703125 C7.18564453 8.91416016 7.18564453 8.91416016 7.17578125 10.28515625 C7.15902344 11.22230469 7.14226562 12.15945312 7.125 13.125 C7.11597656 14.06988281 7.10695313 15.01476562 7.09765625 15.98828125 C7.07404668 18.32562827 7.03817494 20.66284549 7 23 C11.29 23 15.58 23 20 23 C20 24.98 20 26.96 20 29 C13.07 29 6.14 29 -1 29 C-1.02291487 25.0306345 -1.04284015 21.0614368 -1.05493164 17.09204102 C-1.05997057 15.74079614 -1.06680177 14.38955674 -1.07543945 13.03833008 C-1.08752419 11.09979566 -1.09269828 9.161222 -1.09765625 7.22265625 C-1.10289307 6.05484619 -1.10812988 4.88703613 -1.11352539 3.68383789 C-1 1 -1 1 0 0 Z " fill="#000000" transform="translate(324,85)"/>
<path d="M0 0 C2 2 2 2 2.375 5.25 C1.92859154 9.71408464 0.8794023 11.59018148 -2 15 C-7.26315789 19 -7.26315789 19 -10 19 C-11.54509605 14.36471184 -11.62122958 9.83570756 -11 5 C-7.94002351 0.41003527 -5.4735156 -0.85143576 0 0 Z " fill="#E82F38" transform="translate(87,14)"/>
<path d="M0 0 C0.67289063 0.4434375 1.34578125 0.886875 2.0390625 1.34375 C2.72742188 1.7871875 3.41578125 2.230625 4.125 2.6875 C4.63289063 3.0690625 5.14078125 3.450625 5.6640625 3.84375 C5.6640625 4.17375 5.6640625 4.50375 5.6640625 4.84375 C-4.2359375 4.84375 -14.1359375 4.84375 -24.3359375 4.84375 C-22.94695269 2.06578039 -21.02546942 1.81619399 -18.20898438 0.84179688 C-17.52900391 0.61556641 -16.84902344 0.38933594 -16.1484375 0.15625 C-15.1574707 -0.20049805 -15.1574707 -0.20049805 -14.14648438 -0.56445312 C-8.81538957 -2.35902699 -5.05843559 -2.50384103 0 0 Z " fill="#EB474F" transform="translate(112.3359375,111.15625)"/>
</svg>
